REM MD5 5b80809b30733c0ef3c200aad9f223ee
FILE "Simple 1500 Series Vol. 9 - The Chess (Japan) (Culture Publishers).bin" BINARY
  TRACK 01 MODE2/2352
    INDEX 01 00:00:00
  TRACK 02 AUDIO
    INDEX 00 01:42:53
    INDEX 01 01:44:53
  TRACK 03 AUDIO
    INDEX 00 05:37:18
    INDEX 01 05:39:18
  TRACK 04 AUDIO
    INDEX 00 08:13:38
    INDEX 01 08:15:38
  TRACK 05 AUDIO
    INDEX 00 10:57:52
    INDEX 01 10:59:52
  TRACK 06 AUDIO
    INDEX 00 13:02:45
    INDEX 01 13:04:45
REM LEADOUT 15:56:62
